<?xml version="1.0" encoding="UTF-8"?>
<svg width="1200pt" height="1200pt" version="1.1" viewBox="0 0 1200 1200" xmlns="http://www.w3.org/2000/svg">
 <path d="m60 0h1080c33.137 0 60 33.137 60 60v1080c0 33.137-26.863 60-60 60h-1080c-33.137 0-60-33.137-60-60v-1080c0-33.137 26.863-60 60-60z"/>
 <path d="m465.42 404.27 30.055 32.75 82.301-75.531v288.86h44.457v-285.48l82.301 75.535 30.055-32.75-136.43-125.21z" fill="#fff"/>
 <path d="m244.37 718.38 30.055 32.746 57.902-53.133v219.58h44.453v-216.89l57.902 53.141 30.055-32.754-111.64-102.47z" fill="#fff"/>
 <path d="m955.63 721.06-111.65-102.47-108.72 99.785 30.055 32.746 57.902-53.137v219.58h44.453v-216.89l57.902 53.141z" fill="#fff"/>
</svg>
